<svg id="Capa_1" data-name="Capa 1" xmlns="http://www.w3.org/2000/svg" viewBox="0 0 448.23 195.88"><defs><style>.cls-1,.cls-3,.cls-4{fill:none;}.cls-1{stroke:#000;}.cls-1,.cls-3,.cls-4,.cls-5,.cls-6{stroke-miterlimit:10;}.cls-2{fill:#fff;}.cls-3,.cls-4,.cls-5,.cls-6{stroke:#606060;}.cls-4{stroke-width:3px;}.cls-5{fill:#6ce2ff;}.cls-6{fill:#ffb0de;}</style></defs><title>nombre-logo</title><path class="cls-1" d="M25.41,79.39" transform="translate(-16.22 -5.11)"/><path class="cls-1" d="M163.71,24" transform="translate(-16.22 -5.11)"/><path class="cls-2" d="M231.55,107.49l1.55-1,2.58-1.73c1-.66,2-1.39,3.19-2.19s2.26-1.59,3.36-2.4l.29-2.43A83.92,83.92,0,0,1,245,83.94a73.11,73.11,0,0,1,4.07-11.32,52.34,52.34,0,0,1,5.1-8.83,39.57,39.57,0,0,1,5.63-6.33,22.75,22.75,0,0,1,5.66-3.82,12.8,12.8,0,0,1,5.22-1.27,7.8,7.8,0,0,1,3.3.69,6.72,6.72,0,0,1,2.58,2,10.17,10.17,0,0,1,1.69,3.41,16.79,16.79,0,0,1,.61,4.79,26.35,26.35,0,0,1-1,6.94,40.9,40.9,0,0,1-2.82,7.34A57.52,57.52,0,0,1,270.69,85a68.68,68.68,0,0,1-5.65,7.1,70.76,70.76,0,0,1-6.7,6.47,62.55,62.55,0,0,1-7.45,5.43c0,1.44,0,3.18-.15,5.19,0,.86,0,1.5-.05,1.94s0,.75,0,.91v.39a1.28,1.28,0,0,0,.13.59.88.88,0,0,0,.49.43,4.35,4.35,0,0,0,1,.25,12.59,12.59,0,0,0,1.69.09,10.15,10.15,0,0,0,4.28-1.45L270,108.93a3.27,3.27,0,0,1,.58-.1l.54,0a3.24,3.24,0,0,1,1.54.34,3.28,3.28,0,0,1,1.08.91,4.21,4.21,0,0,1,.64,1.33,5.36,5.36,0,0,1,.22,1.54,4.41,4.41,0,0,1-.22,1.4,4.27,4.27,0,0,1-.64,1.28,4.17,4.17,0,0,1-1.07,1,3.81,3.81,0,0,1-1.5.57c-2.33.76-4.7,1.44-7.13,2l-3.27.94-3.42,1a17.45,17.45,0,0,1-3.56.63c-1.22.09-2.4.13-3.54.13a9.31,9.31,0,0,1-4.26-.85,6.77,6.77,0,0,1-2.62-2.31,10.35,10.35,0,0,1-1.35-4.2,35.18,35.18,0,0,1-.39-4.89c-2,1.48-3.73,2.65-5.15,3.51a7.85,7.85,0,0,1-2.71,1.3,1.91,1.91,0,0,1-1.15-.4,4.49,4.49,0,0,1-1-1.07,5.74,5.74,0,0,1-.73-1.49,5.56,5.56,0,0,1-.26-1.64,5.44,5.44,0,0,1,.16-1.33A1.73,1.73,0,0,1,231.55,107.49Zm20-12.5q1.8-1.87,3.75-4.11c1.3-1.48,2.59-3,3.87-4.66s2.52-3.29,3.7-5a59.22,59.22,0,0,0,3.21-5.07,41.54,41.54,0,0,0,2.39-4.91,18,18,0,0,0,1.25-4.52c.07-.48.12-.93.14-1.37s0-.85,0-1.23a6,6,0,0,0-.55-3,1.67,1.67,0,0,0-1.49-.92,4.51,4.51,0,0,0-2.65,1.19,18.69,18.69,0,0,0-3.17,3.4,43.47,43.47,0,0,0-3.34,5.34,57.64,57.64,0,0,0-3.14,7A68.86,68.86,0,0,0,253,85.52,64.13,64.13,0,0,0,251.52,95Z" transform="translate(-16.22 -5.11)"/><path class="cls-2" d="M312.58,109.68a33.52,33.52,0,0,1-2.16,2.67,26.35,26.35,0,0,1-3,2.91,18.86,18.86,0,0,1-3.62,2.35,8.64,8.64,0,0,1-3.87,1,5.43,5.43,0,0,1-3.9-1.48,12.08,12.08,0,0,1-2.69-4.29,17.57,17.57,0,0,1-2.09,2,18.58,18.58,0,0,1-2.71,1.82,16.41,16.41,0,0,1-3.07,1.34,10.11,10.11,0,0,1-3.19.53,8,8,0,0,1-3.28-.7,8.53,8.53,0,0,1-2.83-2,9.69,9.69,0,0,1-2-3.16,11.35,11.35,0,0,1-.74-4.2,21.06,21.06,0,0,1,.74-5.4,34.88,34.88,0,0,1,2.3-6,32.94,32.94,0,0,1,3.34-5.57,25.05,25.05,0,0,1,3.91-4.1,19.45,19.45,0,0,1,4.48-2.78,11.74,11.74,0,0,1,4.79-1,2.15,2.15,0,0,1,1.27.32,3.08,3.08,0,0,1,.76.72c.2.28.4.54.58.8a1.7,1.7,0,0,0,.71.57,3,3,0,0,0,.87.23,6.58,6.58,0,0,0,.9.06l.8,0,.79,0a4.35,4.35,0,0,1,1,.11,1.58,1.58,0,0,1,.81.46,2.35,2.35,0,0,1,.55,1,6.25,6.25,0,0,1,.19,1.74,21.59,21.59,0,0,1-.35,3.73c-.23,1.37-.5,2.77-.8,4.2s-.65,3.07-1,4.9a23.71,23.71,0,0,0-.58,4.64,8.4,8.4,0,0,0,.3,2.52,1.24,1.24,0,0,0,1.28.91,3.81,3.81,0,0,0,1.55-.37,9.06,9.06,0,0,0,1.64-1,17.64,17.64,0,0,0,1.65-1.34c.55-.5,1.07-1,1.56-1.55a53.68,53.68,0,0,0,3.48-4.25Zm-30.16-2.75a12.69,12.69,0,0,0,.12,1.76,5.64,5.64,0,0,0,.44,1.52,3,3,0,0,0,.85,1.09,2.08,2.08,0,0,0,1.34.42,3.17,3.17,0,0,0,2.36-1.14,11.16,11.16,0,0,0,1.83-2.72,21.22,21.22,0,0,0,1.86-6.13l2.63-11.42A6,6,0,0,0,291,91,10.73,10.73,0,0,0,288.45,93a17.84,17.84,0,0,0-2.23,2.79,26.43,26.43,0,0,0-2,3.87,25.33,25.33,0,0,0-1.39,4A14.59,14.59,0,0,0,282.42,106.93Z" transform="translate(-16.22 -5.11)"/><path class="cls-2" d="M336.17,85.63c0,.63,0,1.5-.06,2.59a24.56,24.56,0,0,1-.42,3.57l-.87,4.68c-.34,1.83-.62,3.34-.85,4.54s-.42,2.24-.58,3.14a11.77,11.77,0,0,0-.25,2c0,.66,0,1.26,0,1.82a7.24,7.24,0,0,0,.18,1.44,2.11,2.11,0,0,0,.47,1,1.23,1.23,0,0,0,.93.33,5.88,5.88,0,0,0,1.88-.39,17.16,17.16,0,0,0,2.35-1c.84-.43,1.69-.93,2.55-1.48A28.17,28.17,0,0,0,344,106c.79-.61,1.5-1.21,2.15-1.81a14.37,14.37,0,0,0,1.56-1.68c0,.78,0,1.48,0,2.12s0,1.24,0,1.81,0,1.17,0,1.79,0,1.29,0,2a17.19,17.19,0,0,1-1.92,1.63c-.76.58-1.6,1.16-2.53,1.74s-1.91,1.13-2.95,1.66a31.33,31.33,0,0,1-3.15,1.41,24.87,24.87,0,0,1-3.09,1,12.08,12.08,0,0,1-2.8.36,4.5,4.5,0,0,1-2.24-.52,4.82,4.82,0,0,1-1.61-1.45,9,9,0,0,1-1.14-2.24,22.9,22.9,0,0,1-.81-2.89,28.87,28.87,0,0,1-2.68,3,22.9,22.9,0,0,1-2.87,2.38,14.07,14.07,0,0,1-2.95,1.57,8,8,0,0,1-2.91.58,6,6,0,0,1-2.17-.39,4.49,4.49,0,0,1-1.8-1.3,6.44,6.44,0,0,1-1.24-2.41,12.63,12.63,0,0,1-.46-3.71,30.07,30.07,0,0,1,.7-7.06,73.62,73.62,0,0,0,2-10.69c.06-.35.15-.82.26-1.42a17.15,17.15,0,0,1,.5-2,20.31,20.31,0,0,1,.82-2.14,10.53,10.53,0,0,1,1.16-2A5.79,5.79,0,0,1,315.45,84a3.89,3.89,0,0,1,2-.6,5.77,5.77,0,0,1,2.67.6,1.51,1.51,0,0,1,.81,1.28c-.21,1.58-.45,3.1-.71,4.56s-.53,2.92-.79,4.4-.56,3.13-.89,4.94-.59,3.27-.78,4.36-.36,2-.48,2.65-.18,1-.18,1a6.39,6.39,0,0,0,.12,1.25,4.64,4.64,0,0,0,.37,1.07,2.28,2.28,0,0,0,.64.76,1.51,1.51,0,0,0,.92.29,3.54,3.54,0,0,0,1.58-.41,5.25,5.25,0,0,0,1.52-1.2,6.9,6.9,0,0,0,1.31-1.86,10,10,0,0,0,.84-2.58l3.88-19.16A2.19,2.19,0,0,1,329.67,84a6.22,6.22,0,0,1,2.74-.58,5.21,5.21,0,0,1,2.75.63A1.88,1.88,0,0,1,336.17,85.63Z" transform="translate(-16.22 -5.11)"/><path class="cls-2" d="M343.87,111.05c0-1,.06-2.23.18-3.61s.27-2.81.47-4.34.44-3.07.71-4.66.61-3.26,1-5.06.79-3.28,1.09-4.48a24.64,24.64,0,0,1,.92-3,6,6,0,0,1,.56-1.23,2.29,2.29,0,0,1,.65-.72,2.12,2.12,0,0,1,.91-.36,12.11,12.11,0,0,1,2.78,0,1.14,1.14,0,0,1,.76.43,1.94,1.94,0,0,1,.3,1c0,.42,0,1,0,1.73s-.06,2.09-.18,3.69a38.52,38.52,0,0,0-.1,4.18h.38c.47-.94,1.06-2.17,1.76-3.69a20.28,20.28,0,0,1,2.22-3.8A12,12,0,0,1,361,84.59a5.8,5.8,0,0,1,3.41-1,3.82,3.82,0,0,1,1.3.22,3.39,3.39,0,0,1,1.11.65,3.18,3.18,0,0,1,.76,1,3.29,3.29,0,0,1,.28,1.39,10.72,10.72,0,0,1-.18,1.67c-.11.72-.3,1.65-.56,2.8s-.44,2.09-.56,2.83a11.76,11.76,0,0,0-.18,1.84,7.39,7.39,0,0,0,.25,2.11,3.86,3.86,0,0,0,.65,1.35,2.27,2.27,0,0,0,.91.72,2.64,2.64,0,0,0,1.08.22,8.42,8.42,0,0,0,3.26-.71,20.91,20.91,0,0,0,3.1-1.58,28.76,28.76,0,0,0,3.23-2.32l-.52,8.23-2.08,1.33a23.47,23.47,0,0,1-2.48,1.39,17.57,17.57,0,0,1-2.74,1.09,9.9,9.9,0,0,1-2.9.44,7.58,7.58,0,0,1-4.25-1.07,7.8,7.8,0,0,1-2.57-2.81,14.48,14.48,0,0,1-1.41-3.91c-.3-1.44-.55-2.9-.73-4.37h-.57l-6.29,17.54c-.33.91-.64,1.67-.93,2.27a7.69,7.69,0,0,1-.9,1.46,2.74,2.74,0,0,1-1,.79,2.93,2.93,0,0,1-1.16.23,4,4,0,0,1-2.32-.62,4,4,0,0,1-1.36-1.65,8.24,8.24,0,0,1-.63-2.36A24,24,0,0,1,343.87,111.05Z" transform="translate(-16.22 -5.11)"/><path class="cls-2" d="M411.09,109.68a33.52,33.52,0,0,1-2.16,2.67,26.45,26.45,0,0,1-3.05,2.91,18.55,18.55,0,0,1-3.62,2.35,8.63,8.63,0,0,1-3.86,1,5.43,5.43,0,0,1-3.9-1.48,11.94,11.94,0,0,1-2.69-4.29,18.38,18.38,0,0,1-2.09,2A18.58,18.58,0,0,1,387,116.6a16.7,16.7,0,0,1-3.07,1.34,10.16,10.16,0,0,1-3.19.53,8.11,8.11,0,0,1-3.29-.7,8.63,8.63,0,0,1-2.83-2,9.67,9.67,0,0,1-2-3.16,11.15,11.15,0,0,1-.74-4.2,20.63,20.63,0,0,1,.74-5.4,34.08,34.08,0,0,1,2.3-6,32.94,32.94,0,0,1,3.34-5.57,24.64,24.64,0,0,1,3.91-4.1,19.18,19.18,0,0,1,4.47-2.78,11.81,11.81,0,0,1,4.79-1,2.17,2.17,0,0,1,1.28.32,3.27,3.27,0,0,1,.76.72l.58.8a1.7,1.7,0,0,0,.71.57,3,3,0,0,0,.86.23,6.84,6.84,0,0,0,.91.06l.79,0,.8,0a4.48,4.48,0,0,1,1,.11,1.62,1.62,0,0,1,.81.46,2.35,2.35,0,0,1,.55,1,6.25,6.25,0,0,1,.19,1.74,22.63,22.63,0,0,1-.35,3.73c-.24,1.37-.5,2.77-.81,4.2s-.64,3.07-1,4.9a23,23,0,0,0-.58,4.64,8.4,8.4,0,0,0,.3,2.52,1.23,1.23,0,0,0,1.28.91,3.85,3.85,0,0,0,1.55-.37,9,9,0,0,0,1.63-1,19.13,19.13,0,0,0,1.66-1.34c.55-.5,1.07-1,1.56-1.55A53.68,53.68,0,0,0,409.4,102Zm-30.16-2.75a12.69,12.69,0,0,0,.12,1.76,5.3,5.3,0,0,0,.44,1.52,2.9,2.9,0,0,0,.85,1.09,2.06,2.06,0,0,0,1.33.42,3.15,3.15,0,0,0,2.36-1.14,10.62,10.62,0,0,0,1.83-2.72,18.71,18.71,0,0,0,1.25-3.29,19.4,19.4,0,0,0,.62-2.84l2.62-11.42a6,6,0,0,0-2.81.71A10.54,10.54,0,0,0,387,93a17.89,17.89,0,0,0-2.24,2.79,26.47,26.47,0,0,0-2,3.87,24.37,24.37,0,0,0-1.39,4A14.59,14.59,0,0,0,380.93,106.93Z" transform="translate(-16.22 -5.11)"/><path class="cls-2" d="M331.45,179.12c0-.05,0-.46-.1-1.23s-.14-1.81-.22-3.1-.19-2.77-.31-4.44-.23-3.44-.35-5.28-.23-3.71-.35-5.62-.22-3.74-.3-5.49-.16-3.35-.21-4.81-.08-2.68-.08-3.64a8.32,8.32,0,0,1,.52-3.31,4.22,4.22,0,0,1,1.26-1.7,3.24,3.24,0,0,1,1.55-.63,13,13,0,0,1,1.41-.09,5.57,5.57,0,0,1,2.13.35,2.86,2.86,0,0,1,1.3,1,4,4,0,0,1,.65,1.67,12.27,12.27,0,0,1,.18,2.21l1.55,41.8,22.91-44a4.83,4.83,0,0,1,.84-1.62,6.63,6.63,0,0,1,1.44-1.35,7.57,7.57,0,0,1,1.87-.92,6.8,6.8,0,0,1,2.11-.33,2.25,2.25,0,0,1,2,1.11,5.23,5.23,0,0,1,.72,2.9,11.68,11.68,0,0,1-.67,3.37q-.66,2.11-1.77,4.75c-.74,1.76-1.6,3.64-2.59,5.66s-2,4.07-3.07,6.15-2.15,4.16-3.24,6.21-2.12,4-3.11,5.78a7.32,7.32,0,0,0-.63,1.69,7.5,7.5,0,0,0-.21,1.76,6.57,6.57,0,0,0,.53,2.6,6.18,6.18,0,0,0,1.63,2.25,8.32,8.32,0,0,0,2.81,1.56,12.57,12.57,0,0,0,4.06.58,3.77,3.77,0,0,0,1.25-.24,12.58,12.58,0,0,0,1.43-.65,17.41,17.41,0,0,0,1.51-.94l1.51-1.05c1.12-.84,2.28-1.81,3.48-2.88l-.81,7.31a30,30,0,0,1-5.82,3.78,12.35,12.35,0,0,1-5.43,1.42,12.78,12.78,0,0,1-4.23-.65,9,9,0,0,1-3.15-1.84,7.75,7.75,0,0,1-2-2.89,10,10,0,0,1-.67-3.76,13.61,13.61,0,0,1,.21-2.28,87.47,87.47,0,0,1-3.89,8.1,31,31,0,0,1-3.51,5.2,11.69,11.69,0,0,1-3.28,2.78,6.73,6.73,0,0,1-3.13.83,7.37,7.37,0,0,1-3.45-.71,5.61,5.61,0,0,1-2.13-2,9.53,9.53,0,0,1-1.16-3,29.4,29.4,0,0,1-.52-3.76c-.11-1.35-.18-2.76-.23-4.24S331.57,180.62,331.45,179.12Z" transform="translate(-16.22 -5.11)"/><path class="cls-2" d="M392.18,188.61a33.14,33.14,0,0,1-3.15,2.48,33.48,33.48,0,0,1-4.06,2.42,30.54,30.54,0,0,1-4.45,1.85,13.94,13.94,0,0,1-4.3.74,8.16,8.16,0,0,1-3.08-.51,5.11,5.11,0,0,1-2-1.43,5.39,5.39,0,0,1-1.11-2.23,12,12,0,0,1-.33-2.9,31.72,31.72,0,0,1,.49-5.17c.67-4.07,1.11-6.36,1.3-6.86q.48-1.5,1.92-6.65c.89-2.8,1.44-4.63,1.65-5.47a2.82,2.82,0,0,1,1-1.6,6.37,6.37,0,0,1,1.64-1.05,9.12,9.12,0,0,1,1.9-.6,9.31,9.31,0,0,1,1.78-.2,2.67,2.67,0,0,1,2,.55,2,2,0,0,1,.52,1.46,9.55,9.55,0,0,1-.36,2.18c-.24.94-.52,2-.82,3.22s-.77,2.75-1.37,4.65a34.22,34.22,0,0,0-1.24,4.84c-.22,1.33-.5,2.66-.84,4a14.43,14.43,0,0,0-.5,3.59,7.23,7.23,0,0,0,.35,2.52,1.38,1.38,0,0,0,1.44.93,5.87,5.87,0,0,0,2.81-.88,25.54,25.54,0,0,0,3.13-2.13c1.06-.83,2.09-1.69,3.1-2.58s1.89-1.66,2.67-2.29Z" transform="translate(-16.22 -5.11)"/><path class="cls-2" d="M397.52,196.1a4.9,4.9,0,0,1-3.52-1.65,14.22,14.22,0,0,1-2.83-4.41,29.89,29.89,0,0,1-1.9-6.42,42.06,42.06,0,0,1-.68-7.66,56.57,56.57,0,0,1,1-9.21l1-5.76,1.53-5.76a66.63,66.63,0,0,1,3.08-9.23,59.82,59.82,0,0,1,3.36-6.49,35,35,0,0,1,3.8-5.26,17.58,17.58,0,0,1,4.15-3.53,8.64,8.64,0,0,1,4.41-1.28,5.33,5.33,0,0,1,2.69.62,4.66,4.66,0,0,1,1.66,1.64,6.86,6.86,0,0,1,.85,2.31,13.55,13.55,0,0,1,.25,2.63,30,30,0,0,1-.79,6.77,50.37,50.37,0,0,1-2.12,6.93q-1.33,3.48-3.09,7c-1.17,2.33-2.38,4.65-3.65,7s-2.54,4.56-3.82,6.79-2.46,4.4-3.54,6.53a7,7,0,0,0-.37.92c-.13.38-.25.79-.37,1.22s-.24.91-.35,1.4-.22,1-.29,1.46v.49a8.12,8.12,0,0,0,.2,1.79,9.61,9.61,0,0,0,.47,1.56,4.8,4.8,0,0,0,.6,1.1c.21.27.41.41.6.41a5.49,5.49,0,0,0,1.57-.28,14.56,14.56,0,0,0,1.87-.77c.66-.31,1.34-.68,2-1.09s1.37-.84,2-1.26c1.51-1,3.09-2.14,4.75-3.44l3.11,7.41q-3.23,2.13-6.38,3.81c-.91.47-1.86.93-2.84,1.39s-2,.86-2.95,1.22a25.18,25.18,0,0,1-2.89.85A12.33,12.33,0,0,1,397.52,196.1Zm0-27.87c1.05-1.89,2.18-4,3.36-6.38s2.31-4.8,3.37-7.31A78.17,78.17,0,0,0,407,147a34.68,34.68,0,0,0,1.48-7c0-.69,0-1.27,0-1.76s-.13-.72-.31-.72a3,3,0,0,0-2.08,1.33,18.12,18.12,0,0,0-2.24,3.62,54.26,54.26,0,0,0-2.66,7.41l-1.55,5.14s-.32,1.59-.95,4.76A58.87,58.87,0,0,0,397.56,168.23Z" transform="translate(-16.22 -5.11)"/><path class="cls-2" d="M416.44,196.1a4.87,4.87,0,0,1-3.52-1.65,14.05,14.05,0,0,1-2.84-4.41,29.34,29.34,0,0,1-1.89-6.42,41.19,41.19,0,0,1-.68-7.66,55.47,55.47,0,0,1,1-9.21q1-5.76,1-5.76s.51-1.92,1.54-5.76a64.05,64.05,0,0,1,3.08-9.23,61.63,61.63,0,0,1,3.35-6.49,35.67,35.67,0,0,1,3.8-5.26,17.61,17.61,0,0,1,4.16-3.53,8.58,8.58,0,0,1,4.4-1.28,5.3,5.3,0,0,1,2.69.62,4.69,4.69,0,0,1,1.67,1.64,7.31,7.31,0,0,1,.85,2.31,14.38,14.38,0,0,1,.24,2.63,30.6,30.6,0,0,1-.78,6.77,51.79,51.79,0,0,1-2.12,6.93q-1.34,3.48-3.09,7t-3.66,7c-1.26,2.3-2.54,4.56-3.82,6.79s-2.46,4.4-3.54,6.53a7,7,0,0,0-.37.92c-.13.38-.25.79-.37,1.22s-.23.91-.35,1.4-.21,1-.28,1.46v.49a8.11,8.11,0,0,0,.19,1.79,9.58,9.58,0,0,0,.48,1.56,4.45,4.45,0,0,0,.6,1.1c.21.27.41.41.6.41a5.49,5.49,0,0,0,1.56-.28,14.56,14.56,0,0,0,1.87-.77c.66-.31,1.34-.68,2-1.09s1.37-.84,2-1.26c1.52-1,3.1-2.14,4.76-3.44l3.1,7.41q-3.22,2.13-6.37,3.81c-.92.47-1.87.93-2.84,1.39s-2,.86-3,1.22a24.6,24.6,0,0,1-2.89.85A12.17,12.17,0,0,1,416.44,196.1Zm0-27.87q1.59-2.83,3.37-6.38c1.19-2.37,2.31-4.8,3.37-7.31s2-5,2.75-7.5a35.39,35.39,0,0,0,1.48-7c0-.69,0-1.27-.05-1.76s-.14-.72-.32-.72a3,3,0,0,0-2.08,1.33,18.14,18.14,0,0,0-2.23,3.62,54,54,0,0,0-2.67,7.41l-1.55,5.14s-.31,1.59-.94,4.76A59,59,0,0,0,416.47,168.23Z" transform="translate(-16.22 -5.11)"/><path class="cls-2" d="M464.46,187.38a33.92,33.92,0,0,1-2.17,2.67,26.45,26.45,0,0,1-3,2.92,19,19,0,0,1-3.62,2.34,8.64,8.64,0,0,1-3.87,1,5.42,5.42,0,0,1-3.89-1.48,11.94,11.94,0,0,1-2.69-4.29,17.72,17.72,0,0,1-2.1,2,18.05,18.05,0,0,1-2.71,1.82,16.61,16.61,0,0,1-3.06,1.34,10.21,10.21,0,0,1-3.19.53,8.07,8.07,0,0,1-3.29-.7,8.53,8.53,0,0,1-2.83-2,9.69,9.69,0,0,1-2-3.16,11.35,11.35,0,0,1-.74-4.2,20.66,20.66,0,0,1,.75-5.4,34.08,34.08,0,0,1,2.3-6,32.29,32.29,0,0,1,3.34-5.57,24.64,24.64,0,0,1,3.91-4.1,19.18,19.18,0,0,1,4.47-2.78,11.77,11.77,0,0,1,4.79-1,2.19,2.19,0,0,1,1.28.32,3.22,3.22,0,0,1,.75.72l.59.8a1.64,1.64,0,0,0,.71.57,3,3,0,0,0,.86.23,6.8,6.8,0,0,0,.9.06l.8,0,.8,0a4.48,4.48,0,0,1,1,.11,1.66,1.66,0,0,1,.81.46,2.34,2.34,0,0,1,.54,1,6.2,6.2,0,0,1,.2,1.74,22.63,22.63,0,0,1-.35,3.73q-.36,2.06-.81,4.2c-.3,1.43-.65,3.07-1,4.9a23,23,0,0,0-.58,4.64,8.4,8.4,0,0,0,.3,2.52,1.22,1.22,0,0,0,1.28.91,3.85,3.85,0,0,0,1.55-.37,9.35,9.35,0,0,0,1.63-1,17.64,17.64,0,0,0,1.65-1.34c.55-.5,1.08-1,1.57-1.55,1.14-1.26,2.3-2.67,3.48-4.25Zm-30.17-2.75a12.68,12.68,0,0,0,.13,1.76,5.3,5.3,0,0,0,.44,1.52,3,3,0,0,0,.84,1.09,2.08,2.08,0,0,0,1.34.42,3.15,3.15,0,0,0,2.36-1.14,11.16,11.16,0,0,0,1.83-2.72,18.71,18.71,0,0,0,1.25-3.29,20.82,20.82,0,0,0,.62-2.84L445.72,168a6,6,0,0,0-2.81.71,10.58,10.58,0,0,0-2.59,1.93,17.84,17.84,0,0,0-2.23,2.79,25.52,25.52,0,0,0-2,3.87,24.37,24.37,0,0,0-1.39,4A14.63,14.63,0,0,0,434.29,184.63Z" transform="translate(-16.22 -5.11)"/><path class="cls-2" d="M376.46,151.71a6,6,0,0,1,1.5-3.78,6.23,6.23,0,0,1,2.11-1.52,7.56,7.56,0,0,1,3.28-.62,9.11,9.11,0,0,1,2.32.28,5.62,5.62,0,0,1,1.9.87,4.11,4.11,0,0,1,1.28,1.54,5,5,0,0,1,.48,2.28,7.18,7.18,0,0,1-.39,2.34,5.56,5.56,0,0,1-1.23,2,6.4,6.4,0,0,1-2.12,1.44,7.78,7.78,0,0,1-3.08.55,6.2,6.2,0,0,1-4.57-1.48A5.25,5.25,0,0,1,376.46,151.71Z" transform="translate(-16.22 -5.11)"/><circle class="cls-2" cx="97.94" cy="97.94" r="97.94"/><line class="cls-3" x1="72.47" y1="155.31" x2="46.46" y2="173.3"/><polyline class="cls-3" points="138.79 80.9 128.04 137.87 150.89 127.65 146.48 114.21 126.73 140.37"/><polyline class="cls-3" points="164.88 97.78 170.16 122.81 150.89 128.55 169.17 156.54 170.16 123.94 169.17 156.54 128.04 137.87 150.89 173.3 128.04 164.31 104.03 189.45 130.87 186.55 150.89 174.52"/><polygon class="cls-3" points="192.14 86.37 189.31 109.08 167.71 66.21 192.14 86.37"/><polygon class="cls-3" points="180.25 57.06 167.71 66.21 165.43 52.97 180.25 57.06"/><polygon class="cls-3" points="165.43 52.97 173.62 40.6 158.32 34.14 165.43 52.97"/><polyline class="cls-3" points="164.88 96.38 146.48 114.21 170.16 123.94 183.65 132.21 189.31 109.73"/><polyline class="cls-3" points="98.37 6.1 114.06 4.57 126.73 10.22 141.62 13.72 153.72 24.08"/><line class="cls-3" x1="10.06" y1="125.24" x2="4.07" y2="104.07"/><polygon class="cls-3" points="61.06 27.58 98.37 6.1 91.92 37.77 61.06 27.58"/><polyline class="cls-3" points="51.03 52.97 12.89 81.71 7.23 89.24 4.4 106.9"/><polyline class="cls-3" points="138.79 79.95 126.33 52.97 167.71 66.21 164.88 97.78"/><polygon class="cls-3" points="158.32 34.14 126.33 52.97 114.06 31.31 136.01 32.57 158.32 34.14"/><polyline class="cls-3" points="158.32 34.14 153.72 24.08 136.01 32.57 98.37 6.1 114.06 31.31"/><line class="cls-3" x1="129.16" y1="52.97" x2="164.88" y2="95.12"/><polygon class="cls-3" points="101.2 146.82 101.2 189.45 128.04 137.87 101.2 146.82"/><polyline class="cls-3" points="100.51 95.47 72.47 80.9 63.18 108.48 126.73 138.31"/><polyline class="cls-3" points="52.1 52.97 92.97 37.77 125.2 52.49 72.47 80.9 138.79 79.95 116.89 106.9 100.51 95.47 137.6 79.95 164.88 96.38 190.57 109.73 170.16 122.81"/><polyline class="cls-3" points="7.23 90.82 11.65 125.24 31.36 118.52 7.23 89.24 24.68 85.42"/><polyline class="cls-3" points="31.36 117.04 25.96 85.42 12.89 81.71 25.96 55.8 51.03 52.97 41.34 27.58 25.96 52.97"/><polyline class="cls-3" points="25.96 71.86 25.96 75.22 25.96 85.42 63.18 108.48 35.38 149.65 31.36 118.52 63.18 108.48 53.12 54.23"/><polygon class="cls-3" points="11.65 125.24 35.38 149.65 15.72 143.62 11.65 125.24"/><path class="cls-3" d="M88.69,160.42,79.4,113.59Z" transform="translate(-16.22 -5.11)"/><polyline class="cls-3" points="128.04 137.87 116.89 106.9 63.18 108.48 101.2 146.82 72.47 155.31 101.2 189.45 46.46 173.3 35.38 149.65 72.47 155.31"/><polyline class="cls-3" points="61.06 27.58 72.47 8.93 98.37 6.1 126.73 10.22 136.01 32.57"/><polyline class="cls-3" points="72.47 8.93 54.93 13.83 41.34 27.58 60.35 26.91 52.1 52.97 72.47 78.07 91.92 37.77 91.92 37.77"/><polyline class="cls-3" points="20.64 44.03 25.96 55.8 10.06 64.08 12.89 81.71"/><polyline class="cls-3" points="180.25 57.06 188.42 69.04 192.14 86.37"/><polyline class="cls-3" points="183.65 132.21 179.17 146.82 169.17 156.54 162.6 167.09 150.89 173.3"/><circle class="cls-4" cx="98.37" cy="97.78" r="94.51"/><path class="cls-1" d="M42.18,80.33" transform="translate(-16.22 -5.11)"/><path class="cls-1" d="M169.94,29.19" transform="translate(-16.22 -5.11)"/><circle class="cls-5" cx="167.71" cy="66.21" r="2.83"/><circle class="cls-5" cx="7.23" cy="89.24" r="2.83"/><circle class="cls-5" cx="183.65" cy="132.21" r="2.83"/><circle class="cls-5" cx="136.01" cy="32.57" r="2.83"/><circle class="cls-5" cx="164.88" cy="96.38" r="2.83"/><circle class="cls-5" cx="72.47" cy="80.9" r="2.83"/><circle class="cls-5" cx="150.89" cy="128.55" r="2.83"/><circle class="cls-5" cx="150.89" cy="173.3" r="2.83"/><circle class="cls-5" cx="98.37" cy="6.1" r="2.83"/><circle class="cls-5" cx="153.72" cy="24.08" r="2.83"/><circle class="cls-5" cx="101.2" cy="189.45" r="2.83"/><circle class="cls-5" cx="11.65" cy="125.24" r="2.83"/><circle class="cls-5" cx="41.34" cy="26.91" r="2.83"/><circle class="cls-5" cx="126.33" cy="52.97" r="2.83"/><circle class="cls-5" cx="31.36" cy="118.51" r="2.83"/><circle class="cls-5" cx="52.1" cy="52.97" r="2.83"/><circle class="cls-5" cx="116.88" cy="106.9" r="2.83"/><circle class="cls-5" cx="72.47" cy="155.31" r="2.83"/><circle class="cls-5" cx="72.47" cy="8.93" r="2.83"/><circle class="cls-6" cx="61.06" cy="27.58" r="2.83"/><circle class="cls-6" cx="25.96" cy="85.42" r="2.83"/><circle class="cls-6" cx="25.96" cy="55.8" r="2.83"/><circle class="cls-6" cx="100.51" cy="95.47" r="2.83"/><circle class="cls-6" cx="46.46" cy="173.3" r="2.83"/><circle class="cls-6" cx="170.16" cy="123.94" r="2.83"/><circle class="cls-6" cx="146.48" cy="114.21" r="2.83"/><circle class="cls-6" cx="101.2" cy="146.82" r="2.83"/><circle class="cls-6" cx="128.04" cy="165.16" r="2.83"/><circle class="cls-6" cx="180.26" cy="57.06" r="2.83"/><circle class="cls-6" cx="158.32" cy="34.14" r="2.83"/><circle class="cls-6" cx="114.05" cy="31.31" r="2.83"/><circle class="cls-6" cx="165.43" cy="52.97" r="2.83"/><circle class="cls-6" cx="189.31" cy="109.73" r="2.83"/><circle class="cls-6" cx="128.04" cy="137.87" r="2.83"/><circle class="cls-6" cx="169.17" cy="156.54" r="2.83"/><circle class="cls-6" cx="63.18" cy="108.48" r="2.83"/><circle class="cls-6" cx="12.89" cy="81.71" r="2.83"/><circle class="cls-6" cx="35.53" cy="149.65" r="2.83"/><circle class="cls-6" cx="130.87" cy="184.45" r="2.83"/><circle class="cls-6" cx="91.92" cy="37.77" r="2.83"/><circle class="cls-6" cx="138.79" cy="79.95" r="2.83"/><circle class="cls-6" cx="126.73" cy="10.22" r="2.83"/></svg>